<svg version="1.1" id="Layer_1" xmlns="http://www.w3.org/2000/svg" xmlns:xlink="http://www.w3.org/1999/xlink" x="0px" y="0px"
	 width="100%" viewBox="0 0 199 199" enable-background="new 0 0 199 199" xml:space="preserve">
<path fill="#F8F7F7" opacity=".000000" stroke="none" 
	d="
M184.000000,200.000000 
	C128.645767,200.000000 73.291542,200.000000 17.468712,199.531342 
	C17.000074,133.041794 17.000038,67.020897 17.000000,1.000000 
	C72.354225,1.000000 127.708458,1.000000 183.531342,1.468657 
	C184.000000,67.958206 184.000000,133.979111 184.000000,200.000000 
M43.462502,44.082134 
	C38.095024,37.005554 32.727543,29.928974 27.274105,22.739063 
	C22.987352,28.238443 20.242729,38.138168 21.096184,44.177650 
	C23.889742,63.946335 38.770870,77.070297 58.630718,76.823296 
	C62.857887,76.770714 65.505707,78.364952 67.784912,81.498817 
	C81.260345,100.027260 94.709045,118.575615 108.292519,137.024658 
	C111.174194,140.938538 111.529694,144.677643 110.713326,149.516266 
	C109.608322,156.065643 108.885475,163.171906 110.255051,169.555130 
	C114.564323,189.639450 137.831238,200.504669 153.010193,194.287277 
	C148.001907,186.989639 142.972153,179.819397 138.140808,172.517868 
	C136.804565,170.498398 135.497910,168.172028 135.150177,165.841370 
	C134.223602,159.630844 137.482269,154.252243 142.833511,152.189423 
	C148.516556,149.998734 154.489655,151.927811 158.564423,157.389328 
	C163.886368,164.522476 169.139740,171.706787 174.703018,179.249252 
	C180.127167,170.257721 181.628937,161.185150 179.304062,151.600845 
	C175.927963,137.682983 162.698288,123.606552 143.749969,124.988350 
	C139.697739,125.283844 136.761673,123.864441 134.375854,120.577042 
	C120.824936,101.905220 107.259346,83.242920 93.522812,64.707779 
	C90.508850,60.640961 89.559341,56.972645 91.213074,51.882648 
	C95.450417,38.840538 92.653328,26.885576 83.303543,16.877081 
	C74.032120,6.952466 62.620056,3.222910 48.521313,6.572406 
	C49.613708,8.351766 50.371296,9.769247 51.298794,11.065114 
	C55.551899,17.007389 59.931068,22.860792 64.114876,28.850943 
	C68.645775,35.338047 67.836105,42.728035 62.297604,47.140873 
	C56.404663,51.836113 49.453045,50.895283 43.462502,44.082134 
z"/>
<path fill="#FFFFFF" opacity=".000000" stroke="none" 
	d="
M16.528801,1.000000 
	C17.000038,67.020897 17.000074,133.041794 17.000055,199.531342 
	C11.676903,200.000000 6.353805,200.000000 1.036956,200.000000 
	C1.043205,133.666656 1.043205,67.333313 1.043205,1.000000 
	C6.076808,1.000000 11.067206,1.000000 16.528801,1.000000 
z"/>
<path fill="#FFFFFF" opacity=".000000" stroke="none" 
	d="
M184.471191,200.000000 
	C184.000000,133.979111 184.000000,67.958206 184.000000,1.468657 
	C189.323090,1.000000 194.646194,1.000000 199.963043,1.000004 
	C199.956802,67.333344 199.956802,133.666687 199.956802,200.000000 
	C194.923203,200.000000 189.932800,200.000000 184.471191,200.000000 
z"/>
<path fill="#EC3E7D" opacity="1.000000" stroke="none" 
	d="
M43.685005,44.367050 
	C49.453045,50.895283 56.404663,51.836113 62.297604,47.140873 
	C67.836105,42.728035 68.645775,35.338047 64.114876,28.850943 
	C59.931068,22.860792 55.551899,17.007389 51.298794,11.065114 
	C50.371296,9.769247 49.613708,8.351766 48.521313,6.572406 
	C62.620056,3.222910 74.032120,6.952466 83.303543,16.877081 
	C92.653328,26.885576 95.450417,38.840538 91.213074,51.882648 
	C89.559341,56.972645 90.508850,60.640961 93.522812,64.707779 
	C107.259346,83.242920 120.824936,101.905220 134.375854,120.577042 
	C136.761673,123.864441 139.697739,125.283844 143.749969,124.988350 
	C162.698288,123.606552 175.927963,137.682983 179.304062,151.600845 
	C181.628937,161.185150 180.127167,170.257721 174.703018,179.249252 
	C169.139740,171.706787 163.886368,164.522476 158.564423,157.389328 
	C154.489655,151.927811 148.516556,149.998734 142.833511,152.189423 
	C137.482269,154.252243 134.223602,159.630844 135.150177,165.841370 
	C135.497910,168.172028 136.804565,170.498398 138.140808,172.517868 
	C142.972153,179.819397 148.001907,186.989639 153.010193,194.287277 
	C137.831238,200.504669 114.564323,189.639450 110.255051,169.555130 
	C108.885475,163.171906 109.608322,156.065643 110.713326,149.516266 
	C111.529694,144.677643 111.174194,140.938538 108.292519,137.024658 
	C94.709045,118.575615 81.260345,100.027260 67.784912,81.498817 
	C65.505707,78.364952 62.857887,76.770714 58.630718,76.823296 
	C38.770870,77.070297 23.889742,63.946335 21.096184,44.177650 
	C20.242729,38.138168 22.987352,28.238443 27.274105,22.739063 
	C32.727543,29.928974 38.095024,37.005554 43.685005,44.367050 
z"/>
</svg>